# Blender 4.5.0
# www.blender.org
mtllib impact.mtl
o plat
v -1.000000 0.570740 1.000000
v 1.000000 0.570058 1.000000
v -1.000000 0.591463 -1.069157
v 1.000000 0.475246 -1.000000
v -1.242647 0.591463 -0.846934
v -1.242647 0.591463 -0.555556
v -1.547420 0.376021 -0.333333
v -1.304773 0.000000 -0.111111
v -1.304773 0.236654 0.111111
v -1.304773 0.375114 0.333333
v -1.117773 0.375114 0.555556
v -1.117773 0.570740 0.777778
v -0.777778 0.570740 1.138413
v -0.555556 0.570740 1.138413
v -0.333333 0.399742 1.138413
v -0.111111 0.399742 1.331088
v 0.111111 0.236654 1.331088
v 0.333333 0.496025 1.141781
v 0.555556 0.570058 1.141781
v 0.777778 0.570058 1.000000
v 1.000000 0.570058 0.777778
v 1.147441 0.570058 0.555556
v 1.458871 0.670166 0.333333
v 1.311430 0.569374 0.111111
v 1.311430 0.365107 -0.111111
v 1.311430 0.475246 -0.333333
v 1.127141 0.475246 -0.555556
v 1.127141 0.475246 -0.777778
v 0.777778 0.475246 -1.000000
v 0.555556 0.475246 -1.230346
v 0.333333 0.365107 -1.138785
v 0.111111 0.457212 -1.394108
v -0.111111 0.376021 -1.394108
v -0.333333 0.591463 -1.394108
v -0.555556 0.591463 -1.069157
v -0.777778 0.591463 -1.069157
v -0.895551 0.375114 0.777778
v -0.895551 0.375114 0.555556
v -1.082551 0.236654 0.333333
v -1.082551 0.000000 0.111111
v -1.082551 0.000000 -0.111111
v -1.020425 0.376021 -0.333333
v -1.020425 0.376021 -0.555556
v -1.020425 0.591463 -0.846934
v -0.555556 0.236654 0.916191
v -0.555556 0.236654 0.693969
v -0.555556 0.236654 0.333333
v -0.555556 0.000000 0.111111
v -0.555556 0.000000 -0.111111
v -0.798203 0.000000 -0.333333
v -0.798203 0.376021 -0.555556
v -0.798203 0.591463 -0.846934
v -0.333333 0.236654 0.916191
v -0.333333 0.236654 0.555556
v -0.333333 0.000000 0.333333
v -0.333333 0.000000 0.111111
v -0.333333 0.000000 -0.111111
v -0.333333 0.000000 -0.333333
v -0.333333 0.000000 -0.555556
v -0.333333 0.376021 -0.777778
v -0.111111 0.236654 1.108866
v -0.111111 0.204267 0.555556
v -0.111111 0.007585 0.333333
v -0.111111 -0.196682 0.111111
v -0.111111 -0.196682 -0.111111
v -0.111111 -0.196682 -0.333333
v -0.111111 0.000000 -0.555556
v -0.111111 0.376021 -0.777778
v 0.111111 0.496025 1.108866
v 0.111111 0.204267 0.555556
v 0.111111 0.007585 0.333333
v 0.111111 -0.196682 0.111111
v 0.111111 -0.196682 -0.111111
v 0.111111 -0.196682 -0.333333
v 0.111111 0.000000 -0.555556
v 0.111111 0.000000 -1.171886
v 0.333333 0.496025 0.777778
v 0.333333 0.496025 0.555556
v 0.333333 0.204267 0.333333
v 0.333333 0.204267 0.111111
v 0.333333 0.000000 -0.111111
v 0.333333 0.000000 -0.333333
v 0.333333 0.000000 -0.555556
v 0.333333 0.365107 -0.777778
v 0.555556 0.570058 0.919559
v 0.555556 0.496025 0.555556
v 0.555556 0.204267 0.333333
v 0.555556 0.204267 0.111111
v 0.555556 0.000000 -0.111111
v 0.555556 0.365107 -0.333333
v 0.555556 0.365107 -0.555556
v 0.555556 0.365107 -0.777778
v 0.777778 0.570058 0.777778
v 0.777778 0.496025 0.555556
v 1.089207 0.204267 0.333333
v 1.089207 0.204267 0.111111
v 1.089207 0.365107 -0.111111
v 1.089207 0.365107 -0.333333
v 0.777778 0.365107 -0.555556
v 0.777778 0.475246 -0.777778
vn -0.0000 1.0000 -0.0000
vn 0.3433 0.8612 0.3749
vn 0.6751 0.6964 0.2434
vn 0.8609 0.5088 -0.0000
vn -0.6486 0.3327 0.6845
vn -0.2381 0.9437 0.2297
vn 0.6236 0.7084 -0.3305
vn 0.5513 0.6262 -0.5513
vn 0.4831 0.7754 -0.4066
vn 0.4675 0.7503 -0.4675
vn 0.5891 0.5532 -0.5891
vn -0.0000 0.5088 0.8609
vn -0.0000 0.7180 0.6961
vn 0.4962 0.6849 -0.5336
vn 0.3772 0.9261 -0.0000
vn -0.0000 0.8487 -0.5288
vn -0.0000 0.6845 -0.7290
vn 0.5786 0.3420 0.7404
vn -0.0000 0.8041 0.5945
vn 0.3921 0.5095 -0.7660
vn 0.3806 0.4705 0.7961
vn 0.2734 0.7734 0.5719
vn 0.4564 0.7173 -0.5264
vn 0.1442 0.9895 -0.0000
vn 0.0993 0.6811 -0.7254
vn -0.0341 0.9994 -0.0000
vn 0.6628 0.7488 -0.0000
vn -0.6853 0.5871 -0.4309
vn -0.0000 0.9983 -0.0584
vn -0.0000 0.7488 -0.6628
vn -0.0000 0.7362 -0.6767
vn -0.0000 0.7488 0.6628
vn -0.1118 0.6466 0.7546
vn -0.5707 0.7264 -0.3830
vn -0.5524 0.6242 -0.5524
vn -0.7989 0.4428 -0.4070
vn -0.6628 0.7488 -0.0000
vn -0.5524 0.6242 0.5524
vn -0.8542 0.5199 -0.0000
vn -0.3161 0.9487 -0.0000
vn -0.0000 0.6059 -0.7955
vn -0.6495 0.3953 0.6495
vn -0.1261 0.9721 -0.1977
vn -0.4499 0.6575 -0.6044
vn -0.3351 0.4899 0.8048
vn -0.0000 0.9487 -0.3161
vn -0.1059 0.5285 -0.8423
vn -0.0000 0.8101 0.5863
vn -0.2771 0.8789 0.3883
vn -0.2718 0.8623 0.4274
vn 0.4346 0.8502 0.2972
vn -0.1577 0.4317 0.8881
vn -0.3586 0.9070 0.2207
vn -0.4441 0.8960 -0.0000
vn 0.3308 0.7800 -0.5312
vn 0.6961 0.7180 -0.0000
vn 0.6148 0.6342 0.4689
vn -0.0000 0.5538 -0.8326
vn 0.6524 0.3856 0.6524
vn -0.0000 0.8062 -0.5917
vn 0.0506 0.9970 -0.0584
vn -0.0256 0.7486 -0.6625
vn 0.5459 0.6168 -0.5670
vn 0.5524 0.6242 0.5524
vn 0.4309 0.5871 0.6853
vn -0.7183 0.6154 -0.3245
vn -0.7955 0.6059 -0.0000
vn -0.6226 0.4742 -0.6226
vn -0.0000 0.5199 0.8542
vn -0.1955 0.9610 -0.1955
vn -0.4059 0.8189 0.4059
vn -0.1947 0.9723 -0.1292
vn -0.6064 0.4811 -0.6331
vn -0.7621 0.6047 0.2314
vn -0.7707 0.4691 -0.4312
vn -0.4167 0.8408 0.3456
vt 0.888889 0.888889
vt 1.000000 1.000000
vt 0.888889 1.000000
vt 0.111111 0.888889
vt 0.000000 1.000000
vt 0.000000 0.888889
vt 0.222222 0.888889
vt 0.111111 1.000000
vt 0.333333 0.888889
vt 0.222222 1.000000
vt 0.444444 1.000000
vt 0.333333 1.000000
vt 0.555556 0.888889
vt 0.444444 0.888889
vt 0.666667 1.000000
vt 0.555556 1.000000
vt 0.777778 0.888889
vt 0.666667 0.888889
vt 0.777778 1.000000
vt 0.000000 0.000000
vt 0.111111 0.111111
vt 0.000000 0.111111
vt 0.000000 0.222222
vt 0.111111 0.333333
vt 0.000000 0.333333
vt 0.000000 0.444444
vt 0.111111 0.444444
vt 0.000000 0.555556
vt 0.111111 0.666667
vt 0.000000 0.666667
vt 0.000000 0.777778
vt 0.111111 0.000000
vt 0.222222 0.111111
vt 0.222222 0.222222
vt 0.111111 0.222222
vt 0.222222 0.333333
vt 0.222222 0.444444
vt 0.111111 0.555556
vt 0.222222 0.666667
vt 0.222222 0.777778
vt 0.111111 0.777778
vt 0.333333 0.000000
vt 0.222222 0.000000
vt 0.333333 0.111111
vt 0.333333 0.222222
vt 0.333333 0.333333
vt 0.333333 0.444444
vt 0.222222 0.555556
vt 0.333333 0.666667
vt 0.333333 0.777778
vt 0.444444 0.111111
vt 0.444444 0.222222
vt 0.444444 0.333333
vt 0.444444 0.444444
vt 0.333333 0.555556
vt 0.444444 0.555556
vt 0.444444 0.777778
vt 0.444444 0.000000
vt 0.555556 0.111111
vt 0.555556 0.222222
vt 0.555556 0.333333
vt 0.555556 0.444444
vt 0.555556 0.555556
vt 0.444444 0.666667
vt 0.555556 0.666667
vt 0.555556 0.777778
vt 0.666667 0.000000
vt 0.555556 0.000000
vt 0.666667 0.111111
vt 0.666667 0.333333
vt 0.666667 0.444444
vt 0.666667 0.555556
vt 0.666667 0.666667
vt 0.777778 0.111111
vt 0.777778 0.222222
vt 0.666667 0.222222
vt 0.777778 0.333333
vt 0.777778 0.444444
vt 0.777778 0.555556
vt 0.777778 0.666667
vt 0.666667 0.777778
vt 0.777778 0.777778
vt 0.888889 0.000000
vt 0.777778 0.000000
vt 0.888889 0.111111
vt 0.888889 0.222222
vt 0.888889 0.333333
vt 0.888889 0.555556
vt 0.888889 0.777778
vt 1.000000 0.000000
vt 1.000000 0.111111
vt 1.000000 0.222222
vt 1.000000 0.444444
vt 0.888889 0.444444
vt 1.000000 0.555556
vt 0.888889 0.666667
vt 1.000000 0.777778
vt 1.000000 0.888889
vt 1.000000 0.333333
vt 1.000000 0.666667
s 0
f 100/1/1 4/2/1 29/3/1
f 44/4/1 3/5/1 5/6/1
f 52/7/1 36/8/1 44/4/1
f 60/9/2 35/10/2 52/7/2
f 60/9/3 33/11/3 34/12/3
f 76/13/4 33/11/4 68/14/4
f 76/13/5 31/15/5 32/16/5
f 92/17/1 31/15/1 84/18/1
f 92/17/6 29/3/6 30/19/6
f 1/20/7 37/21/7 12/22/7
f 37/21/8 11/23/8 12/22/8
f 11/23/9 39/24/9 10/25/9
f 39/24/10 9/26/10 10/25/10
f 40/27/11 8/28/11 9/26/11
f 8/28/12 42/29/12 7/30/12
f 42/29/13 6/31/13 7/30/13
f 6/31/1 44/4/1 5/6/1
f 13/32/14 45/33/14 37/21/14
f 37/21/15 46/34/15 38/35/15
f 38/35/16 47/36/16 39/24/16
f 47/36/17 40/27/17 39/24/17
f 48/37/1 41/38/1 40/27/1
f 41/38/18 50/39/18 42/29/18
f 42/29/1 51/40/1 43/41/1
f 51/40/19 44/4/19 43/41/19
f 15/42/20 45/33/20 14/43/20
f 53/44/1 46/34/1 45/33/1
f 54/45/1 47/36/1 46/34/1
f 55/46/11 48/37/11 47/36/11
f 56/47/1 49/48/1 48/37/1
f 49/48/1 58/49/1 50/39/1
f 50/39/21 59/50/21 51/40/21
f 51/40/22 60/9/22 52/7/22
f 15/42/23 61/51/23 53/44/23
f 53/44/24 62/52/24 54/45/24
f 62/52/25 55/46/25 54/45/25
f 63/53/26 56/47/26 55/46/26
f 64/54/27 57/55/27 56/47/27
f 65/56/27 58/49/27 57/55/27
f 58/49/1 67/57/1 59/50/1
f 67/57/12 60/9/12 59/50/12
f 16/58/28 69/59/28 61/51/28
f 61/51/29 70/60/29 62/52/29
f 70/60/30 63/53/30 62/52/30
f 71/61/31 64/54/31 63/53/31
f 72/62/1 65/56/1 64/54/1
f 73/63/1 66/64/1 65/56/1
f 74/65/32 67/57/32 66/64/32
f 75/66/12 68/14/12 67/57/12
f 18/67/33 69/59/33 17/68/33
f 77/69/34 70/60/34 69/59/34
f 70/60/35 79/70/35 71/61/35
f 71/61/36 80/71/36 72/62/36
f 72/62/37 81/72/37 73/63/37
f 81/72/37 74/65/37 73/63/37
f 82/73/38 75/66/38 74/65/38
f 75/66/39 84/18/39 76/13/39
f 18/67/40 85/74/40 77/69/40
f 77/69/1 86/75/1 78/76/1
f 86/75/41 79/70/41 78/76/41
f 87/77/1 80/71/1 79/70/1
f 88/78/31 81/72/31 80/71/31
f 89/79/1 82/73/1 81/72/1
f 90/80/39 83/81/39 82/73/39
f 91/82/42 84/18/42 83/81/42
f 20/83/1 85/74/1 19/84/1
f 93/85/43 86/75/43 85/74/43
f 94/86/41 87/77/41 86/75/41
f 95/87/1 88/78/1 87/77/1
f 88/78/44 97/88/44 89/79/44
f 97/88/45 90/80/45 89/79/45
f 90/80/1 99/89/1 91/82/1
f 99/89/1 92/17/1 91/82/1
f 2/90/1 93/85/1 20/83/1
f 21/91/46 94/86/46 93/85/46
f 22/92/47 95/87/47 94/86/47
f 95/87/39 24/93/39 96/94/39
f 96/94/48 25/95/48 97/88/48
f 25/95/1 98/96/1 97/88/1
f 98/96/49 27/97/49 99/89/49
f 27/97/50 100/1/50 99/89/50
f 100/1/1 28/98/1 4/2/1
f 44/4/1 36/8/1 3/5/1
f 52/7/1 35/10/1 36/8/1
f 60/9/51 34/12/51 35/10/51
f 60/9/1 68/14/1 33/11/1
f 76/13/52 32/16/52 33/11/52
f 76/13/39 84/18/39 31/15/39
f 92/17/53 30/19/53 31/15/53
f 92/17/54 100/1/54 29/3/54
f 1/20/55 13/32/55 37/21/55
f 37/21/1 38/35/1 11/23/1
f 11/23/16 38/35/16 39/24/16
f 39/24/11 40/27/11 9/26/11
f 40/27/1 41/38/1 8/28/1
f 8/28/12 41/38/12 42/29/12
f 42/29/56 43/41/56 6/31/56
f 6/31/57 43/41/57 44/4/57
f 13/32/58 14/43/58 45/33/58
f 37/21/15 45/33/15 46/34/15
f 38/35/15 46/34/15 47/36/15
f 47/36/17 48/37/17 40/27/17
f 48/37/1 49/48/1 41/38/1
f 41/38/1 49/48/1 50/39/1
f 42/29/59 50/39/59 51/40/59
f 51/40/19 52/7/19 44/4/19
f 15/42/60 53/44/60 45/33/60
f 53/44/1 54/45/1 46/34/1
f 54/45/11 55/46/11 47/36/11
f 55/46/1 56/47/1 48/37/1
f 56/47/1 57/55/1 49/48/1
f 49/48/1 57/55/1 58/49/1
f 50/39/1 58/49/1 59/50/1
f 51/40/21 59/50/21 60/9/21
f 15/42/23 16/58/23 61/51/23
f 53/44/61 61/51/61 62/52/61
f 62/52/62 63/53/62 55/46/62
f 63/53/63 64/54/63 56/47/63
f 64/54/27 65/56/27 57/55/27
f 65/56/27 66/64/27 58/49/27
f 58/49/64 66/64/64 67/57/64
f 67/57/12 68/14/12 60/9/12
f 16/58/65 17/68/65 69/59/65
f 61/51/66 69/59/66 70/60/66
f 70/60/30 71/61/30 63/53/30
f 71/61/31 72/62/31 64/54/31
f 72/62/1 73/63/1 65/56/1
f 73/63/1 74/65/1 66/64/1
f 74/65/32 75/66/32 67/57/32
f 75/66/4 76/13/4 68/14/4
f 18/67/1 77/69/1 69/59/1
f 77/69/67 78/76/67 70/60/67
f 70/60/68 78/76/68 79/70/68
f 71/61/37 79/70/37 80/71/37
f 72/62/36 80/71/36 81/72/36
f 81/72/37 82/73/37 74/65/37
f 82/73/1 83/81/1 75/66/1
f 75/66/69 83/81/69 84/18/69
f 18/67/40 19/84/40 85/74/40
f 77/69/70 85/74/70 86/75/70
f 86/75/41 87/77/41 79/70/41
f 87/77/1 88/78/1 80/71/1
f 88/78/31 89/79/31 81/72/31
f 89/79/42 90/80/42 82/73/42
f 90/80/39 91/82/39 83/81/39
f 91/82/1 92/17/1 84/18/1
f 20/83/1 93/85/1 85/74/1
f 93/85/46 94/86/46 86/75/46
f 94/86/41 95/87/41 87/77/41
f 95/87/1 96/94/1 88/78/1
f 88/78/48 96/94/48 97/88/48
f 97/88/1 98/96/1 90/80/1
f 90/80/1 98/96/1 99/89/1
f 99/89/71 100/1/71 92/17/71
f 2/90/1 21/91/1 93/85/1
f 21/91/72 22/92/72 94/86/72
f 22/92/73 23/99/73 95/87/73
f 95/87/74 23/99/74 24/93/74
f 96/94/75 24/93/75 25/95/75
f 25/95/71 26/100/71 98/96/71
f 98/96/76 26/100/76 27/97/76
f 27/97/1 28/98/1 100/1/1
