# Blender 4.5.1 LTS
# www.blender.org
mtllib petal.mtl
o fl
v -0.431076 -0.024613 1.273478
v 0.351202 -0.030907 1.231220
v -0.453077 -0.071162 0.960947
v 0.416286 -0.075175 0.934002
v -0.657612 -0.126222 0.357324
v 0.619054 -0.124748 0.334287
v -0.709969 -0.048566 -0.089987
v 0.685607 -0.037595 -0.115133
v -0.576687 -0.047542 -0.684434
v 0.560221 -0.029108 -0.708867
v -0.621199 0.339260 -1.042912
v 0.606988 0.369658 -1.085821
v -0.524761 -0.036534 1.193439
v -0.044577 -0.012485 1.354906
v 0.464151 -0.043315 1.147910
v -0.016033 -0.067364 0.986443
v -0.934313 -0.088560 0.138185
v -0.020610 -0.140935 0.429874
v 0.902853 -0.080005 0.105060
v -0.010850 -0.027630 -0.186629
v 0.495362 -0.073163 0.914149
v -0.561510 -0.067208 0.958250
v 0.586285 -0.112183 0.522841
v -0.614466 -0.110794 0.544518
v -0.737447 0.167688 -0.932256
v -0.008018 -0.078314 -0.728644
v 0.722972 0.199990 -0.976556
v -0.006457 0.445991 -1.180168
v 0.743924 0.220047 -0.752681
v 0.667213 -0.119858 -0.283029
v -0.689192 -0.131816 -0.264747
v -0.762574 0.189178 -0.706762
v -0.032694 -0.017807 1.319177
v 0.976810 0.056938 -0.531529
v -0.037004 -0.061423 1.018510
v 0.751010 -0.092379 0.718924
v -0.798399 -0.087217 0.764908
v -0.010385 -0.118173 0.465322
v -0.006331 0.237923 -1.109487
v -0.997039 0.026919 -0.486651
v -0.008950 0.274236 -0.823069
v -0.011280 -0.190379 -0.195111
vn -0.0000 -0.9891 0.1473
vn -0.2919 0.9531 0.0794
vn -0.1309 -0.9431 -0.3057
vn -0.7455 -0.6541 0.1284
vn -0.3369 0.8650 0.3718
vn 0.0022 0.9902 -0.1395
vn -0.0019 0.9903 -0.1386
vn -0.0233 0.9932 -0.1142
vn 0.0210 0.9929 -0.1170
vn -0.0118 0.9917 -0.1282
vn 0.0220 -0.9933 0.1137
vn 0.0135 -0.9977 -0.0666
vn -0.0889 0.9946 -0.0532
vn -0.0199 -0.9930 0.1164
vn 0.0128 0.9913 -0.1313
vn 0.0866 0.9941 -0.0652
vn -0.0107 -0.9989 -0.0463
vn -0.0022 -0.9956 0.0934
vn 0.0015 -0.9954 0.0958
vn -0.0055 -0.9931 -0.1175
vn 0.0095 -0.9920 -0.1263
vn 0.0841 0.7714 0.6308
vn -0.0808 0.7729 0.6294
vn -0.1203 0.3966 0.9101
vn 0.1618 0.3846 0.9088
vn 0.1416 -0.9486 -0.2830
vn 0.2742 0.9595 0.0638
vn 0.3270 0.8708 0.3671
vn 0.7505 -0.6447 0.1451
vn -0.0012 -0.9156 -0.4022
vn 0.0090 -0.9183 -0.3958
vn 0.0512 -0.9099 -0.4118
vn -0.0367 -0.9087 -0.4159
vn 0.0604 0.9972 -0.0451
vn -0.0710 0.9967 -0.0390
vn -0.0817 0.9733 0.2146
vn 0.0657 0.9757 0.2089
vt 0.000000 0.000000
vt 0.000000 0.500000
vt 0.500000 0.500000
vt 0.500000 0.000000
vt 0.000000 1.000000
vt 0.500000 1.000000
vt 1.000000 1.000000
vt 1.000000 0.500000
vt 1.000000 0.000000
vt 0.833333 0.166667
vt 0.958333 0.500000
vt 0.939043 0.500000
vt 0.819059 0.180941
vt 0.833333 0.833333
vt 0.819059 0.819059
vt 0.750000 0.750000
vt 0.804784 0.500000
vt 0.750000 0.250000
vt 0.500000 0.034722
vt 0.152778 0.152778
vt 0.847222 0.152778
vt 0.500000 0.041667
vt 0.166667 0.166667
vt 0.965278 0.500000
vt 0.847222 0.847222
vt 0.034722 0.500000
vt 0.152778 0.847222
vt 0.041667 0.500000
vt 0.166667 0.833333
vt 0.500000 0.965278
vt 0.500000 0.958333
vt 0.250000 0.250000
vt 0.500000 0.195216
vt 0.500000 0.500000
vt 0.195216 0.500000
vt 0.500000 0.804784
vt 0.250000 0.750000
vt 0.060957 0.500000
vt 0.180941 0.819059
vt 0.180941 0.180941
vt 0.500000 0.939043
vt 0.500000 0.060957
s 0
f 1/1/1 13/2/1 33/3/1 14/4/1
f 13/2/1 3/5/1 16/6/1 33/3/1
f 33/3/1 16/6/1 4/7/1 15/8/1
f 14/4/1 33/3/1 15/8/1 2/9/1
f 6/10/2 19/11/2 34/12/2 30/13/2
f 19/11/3 8/14/3 29/15/3 34/12/3
f 34/12/4 29/15/4 12/16/4 27/17/4
f 30/13/5 34/12/5 27/17/5 10/18/5
f 1/1/6 14/4/6 35/19/6 22/20/6
f 14/4/7 2/9/7 21/21/7 35/19/7
f 35/19/8 21/21/8 6/10/8 18/22/8
f 22/20/9 35/19/9 18/22/9 5/23/9
f 2/9/10 15/8/10 36/24/10 21/21/10
f 15/8/11 4/7/11 23/25/11 36/24/11
f 36/24/12 23/25/12 8/14/12 19/11/12
f 21/21/13 36/24/13 19/11/13 6/10/13
f 3/5/14 13/2/14 37/26/14 24/27/14
f 13/2/15 1/1/15 22/20/15 37/26/15
f 37/26/16 22/20/16 5/23/16 17/28/16
f 24/27/17 37/26/17 17/28/17 7/29/17
f 4/7/18 16/6/18 38/30/18 23/25/18
f 16/6/19 3/5/19 24/27/19 38/30/19
f 38/30/20 24/27/20 7/29/20 20/31/20
f 23/25/21 38/30/21 20/31/21 8/14/21
f 9/32/22 26/33/22 39/34/22 25/35/22
f 26/33/23 10/18/23 27/17/23 39/34/23
f 39/34/24 27/17/24 12/16/24 28/36/24
f 25/35/25 39/34/25 28/36/25 11/37/25
f 7/29/26 17/28/26 40/38/26 32/39/26
f 17/28/27 5/23/27 31/40/27 40/38/27
f 40/38/28 31/40/28 9/32/28 25/35/28
f 32/39/29 40/38/29 25/35/29 11/37/29
f 8/14/30 20/31/30 41/41/30 29/15/30
f 20/31/31 7/29/31 32/39/31 41/41/31
f 41/41/32 32/39/32 11/37/32 28/36/32
f 29/15/33 41/41/33 28/36/33 12/16/33
f 5/23/34 18/22/34 42/42/34 31/40/34
f 18/22/35 6/10/35 30/13/35 42/42/35
f 42/42/36 30/13/36 10/18/36 26/33/36
f 31/40/37 42/42/37 26/33/37 9/32/37
